<svg width="15" height="15" viewBox="0 0 15 15" fill="none" xmlns="http://www.w3.org/2000/svg">
<path d="M7.9483 0.776951C7.90693 0.693483 7.84307 0.623231 7.76391 0.574117C7.68476 0.525002 7.59345 0.498978 7.5003 0.498978C7.40714 0.498978 7.31584 0.525002 7.23668 0.574117C7.15753 0.623231 7.09366 0.693483 7.0523 0.776951L5.0053 4.92395L0.428298 5.58895C0.335948 5.60236 0.249194 5.64135 0.17785 5.7015C0.106507 5.76166 0.053421 5.84057 0.0245987 5.92933C-0.00422356 6.01809 -0.00763211 6.11314 0.0147587 6.20373C0.0371495 6.29432 0.084446 6.37684 0.151298 6.44195L3.4633 9.66995L2.6813 14.229C2.66561 14.3208 2.67592 14.4153 2.71106 14.5016C2.7462 14.5879 2.80478 14.6627 2.88018 14.7175C2.95558 14.7723 3.04479 14.805 3.13776 14.8118C3.23073 14.8186 3.32374 14.7992 3.4063 14.756L7.5003 12.603L11.5943 14.756C11.6769 14.7992 11.7699 14.8186 11.8628 14.8118C11.9558 14.805 12.045 14.7723 12.1204 14.7175C12.1958 14.6627 12.2544 14.5879 12.2895 14.5016C12.3247 14.4153 12.335 14.3208 12.3193 14.229L11.5373 9.66895L14.8493 6.44195C14.9161 6.37684 14.9634 6.29432 14.9858 6.20373C15.0082 6.11314 15.0048 6.01809 14.976 5.92933C14.9472 5.84057 14.8941 5.76166 14.8227 5.7015C14.7514 5.64135 14.6646 5.60236 14.5723 5.58895L9.9953 4.92395L7.9483 0.776951Z" fill="#F4CE14"/>
</svg>
